<svg class="svg-icon" style="width: 1em; height: 1em;vertical-align: middle;fill: currentColor;overflow: hidden;" viewBox="0 0 1024 1024" version="1.1" xmlns="http://www.w3.org/2000/svg"><path d="M837.37 23.996L357.452 511.992v153.344l21.25 47.998 26.188 73.312h52.468l8-52 54.686-25.312 25.33-49.342 41.342-16 2.658-37.344 42.686-12 2.656-48 54.658-24v-32.656l57.34-23.344 2.658-46.654 61.342-17.344 5.344-49.314 49.312-10.686 18.686-52 40-4 6.656-58.656 57.344-4V167.996z" fill="#E6E9ED" /><path d="M380.014 683.024l-22-83.032 22-110L50.018 811.99v21.998l72 23.344 36 66.656 60 78 167-152 27-85.998-32.004-80.966z m-134.998 195.964l-54-115.498 59.312-49 56.688 112.5-62 51.998z" fill="#5D9CEC" /><path d="M1005.432 161.37a21.228 21.228 0 0 0-6.906-14.812l-2.688-2.468a18.758 18.758 0 0 0-1.812-2.062l-135.782-135.78c-8.312-8.312-21.812-8.312-30.154 0L15.924 818.366l8.718 14.31c16.844 27.782 40.686 35.062 59.812 40.876 21 6.438 34.876 10.688 45.844 38.124 17.376 43.624 36.218 75.124 56 93.688 17.906 16.812 32.218 18.624 37.53 18.624l9.282-0.376 144.5-144.5 0.718-0.75c3.812-4.188 28.188-31.844 41.656-66.216l48.592-2.094c11.782-0.532 20.906-10.5 20.406-22.25l-1.688-39 38.968-1.688c11.782-0.5 20.922-10.438 20.39-22.218l-1.688-38.966 38.968-1.688c11.782-0.532 20.906-10.5 20.406-22.25l-1.688-39 38.968-1.688a21.444 21.444 0 0 0 14.812-6.876 21.394 21.394 0 0 0 5.562-15.376l-1.688-38.938 39-1.688a21.414 21.414 0 0 0 14.78-6.906 21.256 21.256 0 0 0 5.594-15.344l-1.688-39 38.968-1.688a21.444 21.444 0 0 0 14.812-6.876 21.56 21.56 0 0 0 5.594-15.376l-1.718-38.936 39-1.688a21.356 21.356 0 0 0 14.782-6.906 21.262 21.262 0 0 0 5.592-15.344l-1.688-39 38.968-1.688a21.32 21.32 0 0 0 14.812-6.876 21.534 21.534 0 0 0 5.594-15.344l-1.718-38.968 39-1.688c11.75-0.532 20.876-10.5 20.376-22.25l-1.688-39 38.968-1.688c11.782-0.5 20.906-10.438 20.406-22.25l-2.618-60.24zM219.046 977.332c-9.468-7.468-27.686-27.718-49.124-81.438-18.532-46.468-50-56.094-73-63.124-10.75-3.28-18.594-5.842-24.844-10.216l277.966-278.56c-1.406 10.124-3.656 21.25-5.782 31.782-0.376 1.844-0.75 3.688-1.124 5.562l-25.28 25.312c-8.344 8.344-8.344 21.844 0 30.156a21.144 21.144 0 0 0 15.062 6.25c0.594 0 1.156-0.032 1.718-0.062a179.646 179.646 0 0 0 0.188 15.876c1.782 31.75 12.968 58.124 33.25 78.56l-5.032 5.032c-8.312 8.344-8.312 21.844 0 30.156a21.216 21.216 0 0 0 15.094 6.25c2.532 0 5.062-0.438 7.468-1.344-4.156 27.968-28.124 60.154-38.562 71.81l-127.998 127.998z m706.48-773.462c-11.782 0.5-20.906 10.468-20.406 22.25l1.688 38.968-38.968 1.688c-11.782 0.532-20.906 10.468-20.376 22.218l1.688 39-38.966 1.688a21.38 21.38 0 0 0-14.812 6.876 21.468 21.468 0 0 0-5.594 15.376l1.688 38.968-38.968 1.688a21.35 21.35 0 0 0-14.812 6.906 21.34 21.34 0 0 0-5.562 15.312l1.688 39-38.966 1.688a21.516 21.516 0 0 0-14.812 6.876 21.468 21.468 0 0 0-5.594 15.376l1.688 38.968-38.968 1.688a21.35 21.35 0 0 0-14.812 6.906 21.292 21.292 0 0 0-5.562 15.312l1.688 39-38.968 1.688a21.38 21.38 0 0 0-14.812 6.876 21.42 21.42 0 0 0-5.594 15.376l1.688 38.968-38.984 1.688c-11.782 0.532-20.906 10.468-20.376 22.218l1.688 38.998-39 1.688c-11.75 0.5-20.874 10.468-20.374 22.25l1.688 38.968-16.532 0.718c0-1.562-0.032-3.094-0.124-4.624-0.812-13.938-5.156-26.75-12.688-37.844-0.5-0.844-1.062-1.624-1.688-2.406a78.224 78.224 0 0 0-11.906-12.876c-32.812-28.56-27.25-71.936-18.75-115.31 0.032-0.062 0.032-0.094 0.032-0.124a766.22 766.22 0 0 1 2.344-11.624c5.968-29.624 11.688-57.938 4.688-80.938L843.15 51.496l118.124 118.124c0.594 0.812 1.218 1.594 1.906 2.312l1.312 30.25-38.966 1.688z" fill="#080808" /><path d="M329.734 815.49l-60.342-120.686c-5.282-10.532-18.094-14.812-28.624-9.532a20.824 20.824 0 0 0-5.5 3.968c-0.032 0-0.032 0-0.062 0.032l-60 59.998c0 0.032-0.032 0.032-0.032 0.032l-0.282 0.282c-0.032 0.032-0.062 0.094-0.124 0.156-6.188 6.312-8.062 16.124-3.876 24.468l60.342 120.686a21.396 21.396 0 0 0 19.124 11.812c3.188 0 6.438-0.718 9.5-2.282a21.428 21.428 0 0 0 5.532-3.938c0-0.032 0.032-0.032 0.032-0.062l60-59.968c0-0.032 0.032-0.032 0.062-0.062l0.25-0.282c0.032 0 0.032-0.062 0.062-0.062 6.25-6.312 8.124-16.154 3.938-24.56z m-113.78-46.624l28.5-28.5 40.218 80.468-28.5 28.53-40.218-80.498z" fill="#080808" /></svg>